<?xml version="1.0" standalone="no"?>
<!DOCTYPE svg PUBLIC "-//W3C//DTD SVG 20010904//EN"
 "http://www.w3.org/TR/2001/REC-SVG-20010904/DTD/svg10.dtd">
<svg version="1.0" xmlns="http://www.w3.org/2000/svg"
 width="163.000000pt" height="162.000000pt" viewBox="0 0 163.000000 162.000000"
 preserveAspectRatio="xMidYMid meet">

<g transform="translate(0.000000,162.000000) scale(0.100000,-0.100000)"
fill="#000000" stroke="none">
<path d="M710 1584 c-19 -3 -66 -14 -105 -26 -263 -77 -451 -265 -536 -538
-34 -107 -34 -300 -1 -414 76 -263 263 -457 522 -542 77 -25 99 -28 230 -28
138 0 149 1 240 32 153 53 262 127 355 240 113 136 174 293 182 467 17 366
-209 678 -566 785 -73 21 -242 34 -321 24z m315 -76 c195 -57 354 -188 443
-364 59 -116 77 -196 77 -334 0 -103 -4 -138 -23 -200 -47 -148 -127 -271
-234 -359 -64 -52 -184 -121 -210 -121 -19 0 -62 46 -54 58 3 6 20 13 36 17
41 9 165 92 219 146 160 161 226 398 172 612 -50 195 -164 338 -340 426 -378
191 -838 -30 -926 -444 -67 -319 113 -639 426 -752 65 -24 90 -27 212 -28 129
-2 139 -4 162 -25 14 -13 25 -27 25 -31 0 -15 -147 -32 -235 -26 -371 23 -661
317 -682 692 -16 310 165 594 454 710 149 60 324 68 478 23z m-80 -113 c114
-24 209 -77 295 -164 87 -87 131 -164 160 -277 50 -193 -3 -400 -139 -547 -30
-32 -74 -72 -99 -89 l-44 -30 -29 29 -30 29 50 32 c138 90 231 264 231 432 0
238 -169 450 -402 505 -277 65 -557 -109 -623 -387 -88 -376 258 -716 633
-622 l64 16 26 -26 c32 -31 26 -39 -48 -61 -329 -97 -684 114 -755 450 -43
204 16 397 164 546 149 149 342 207 546 164z m-4 -133 c323 -85 454 -473 249
-742 l-19 -25 -30 29 -30 29 31 45 c135 196 59 452 -169 567 -52 27 -68 30
-153 30 -85 0 -102 -3 -155 -29 -77 -38 -163 -124 -200 -201 -26 -52 -29 -71
-30 -151 0 -84 2 -95 38 -166 108 -220 356 -292 553 -163 l52 34 28 -30 29
-30 -25 -19 c-285 -218 -692 -56 -752 298 -47 279 177 541 462 541 30 0 85 -8
121 -17z m10 -144 c136 -63 229 -224 205 -354 l-7 -37 -35 34 c-22 21 -34 42
-34 59 0 81 -62 176 -141 216 -108 54 -214 38 -298 -46 -86 -86 -102 -189 -47
-298 93 -183 338 -188 449 -10 l31 49 24 -25 c33 -33 25 -60 -37 -124 -74 -74
-147 -107 -241 -107 -62 0 -85 5 -132 28 -74 36 -144 107 -177 177 -36 79 -36
183 1 262 81 173 277 251 439 176z m-77 -109 c51 -14 121 -80 142 -135 58
-151 -109 -318 -260 -260 -79 30 -146 124 -146 204 0 63 64 150 135 183 46 21
75 23 129 8z"/>
</g>
</svg>
