<?xml version="1.0" standalone="no"?>
<!DOCTYPE svg PUBLIC "-//W3C//DTD SVG 20010904//EN"
 "http://www.w3.org/TR/2001/REC-SVG-20010904/DTD/svg10.dtd">
<svg version="1.0" xmlns="http://www.w3.org/2000/svg"
 width="765.000000pt" height="430.000000pt" viewBox="0 0 765.000000 430.000000"
 preserveAspectRatio="xMidYMid meet">

<g transform="translate(0.000000,430.000000) scale(0.100000,-0.100000)"
fill="#000000" stroke="none">
<path d="M2200 1971 c0 -876 2 -991 15 -991 13 0 15 114 13 987 -2 778 -6 987
-15 991 -10 3 -13 -199 -13 -987z"/>
<path d="M715 2673 c-166 -20 -350 -116 -467 -242 -282 -306 -283 -752 -4
-1057 145 -159 323 -242 541 -251 364 -16 674 208 781 562 23 78 27 107 27
215 0 106 -4 138 -27 215 -112 373 -466 606 -851 558z m232 -58 c322 -68 535
-284 590 -600 31 -180 -6 -349 -112 -515 -72 -111 -206 -226 -313 -267 l-43
-16 -29 28 -29 28 87 43 c160 78 278 214 338 389 23 67 27 97 28 190 1 189
-58 332 -193 465 -200 199 -488 244 -745 119 -336 -164 -458 -588 -264 -917
44 -75 149 -178 229 -225 110 -65 174 -81 332 -83 135 -1 139 -2 165 -27 l26
-26 -30 -12 c-54 -21 -223 -23 -309 -4 -266 59 -462 233 -552 490 -25 74 -28
92 -27 225 0 130 2 153 27 225 38 113 90 198 177 286 170 172 424 252 647 204z
m-5 -130 c260 -55 450 -274 474 -548 13 -155 -57 -340 -175 -458 -36 -36 -80
-73 -97 -82 -30 -16 -32 -15 -58 12 l-26 27 59 42 c102 71 169 170 201 297 24
92 25 136 5 228 -33 159 -137 293 -278 361 -348 168 -747 -80 -747 -464 0
-146 48 -259 154 -366 135 -135 311 -184 495 -138 l65 17 24 -29 25 -28 -39
-18 c-171 -76 -428 -32 -585 99 -154 129 -225 290 -217 488 10 223 129 410
321 505 136 67 259 84 399 55z m34 -146 c178 -66 291 -213 310 -401 10 -101
-35 -251 -97 -327 l-20 -25 -29 30 -29 29 34 55 c50 80 70 168 57 249 -23 135
-102 240 -227 302 -64 31 -77 34 -160 34 -84 0 -96 -3 -158 -34 -78 -39 -152
-113 -193 -192 -26 -49 -29 -63 -29 -154 0 -93 2 -105 32 -166 106 -214 360
-291 554 -168 56 35 59 35 89 4 l23 -24 -24 -20 c-181 -149 -470 -127 -632 49
-171 184 -171 455 -1 639 125 135 328 184 500 120z m-63 -119 c132 -41 240
-181 241 -315 1 -35 -2 -67 -7 -71 -16 -16 -65 47 -72 94 -17 115 -115 213
-228 228 -100 14 -212 -49 -261 -148 -105 -210 126 -444 338 -343 48 23 100
73 124 120 l18 36 29 -31 c26 -28 28 -32 15 -56 -27 -49 -127 -131 -187 -154
-202 -77 -443 97 -443 320 0 146 103 279 253 325 60 19 106 18 180 -5z m-39
-122 c25 -8 59 -31 87 -58 83 -83 86 -185 8 -274 -96 -108 -246 -96 -326 26
-24 35 -28 52 -28 108 0 57 4 73 29 108 30 43 76 78 124 92 39 12 60 12 106
-2z"/>
<path d="M5670 2521 c0 -6 -29 -249 -65 -540 -36 -292 -65 -538 -65 -546 0
-13 11 -15 62 -13 l63 3 22 180 c12 99 22 181 22 183 1 1 14 2 29 2 37 0 40
-4 157 -195 54 -88 103 -163 109 -167 15 -10 126 -10 126 0 0 5 -57 102 -126
217 l-125 208 163 164 c90 90 165 166 167 169 2 2 -27 4 -65 4 l-69 0 -151
-155 c-120 -124 -155 -155 -177 -155 -15 0 -27 2 -27 4 0 6 69 570 75 609 l5
37 -65 0 c-36 0 -65 -4 -65 -9z"/>
<path d="M7535 2508 c-2 -13 -14 -104 -26 -203 -12 -99 -23 -182 -25 -184 -1
-1 -20 10 -41 27 -163 127 -383 11 -474 -251 -46 -134 -48 -292 -4 -377 41
-80 133 -122 216 -100 83 22 148 72 226 176 l23 29 -7 -91 c-5 -86 -4 -93 15
-103 24 -13 79 -15 86 -3 8 14 126 990 126 1048 l0 54 -55 0 c-49 0 -55 -2
-60 -22z m-132 -432 c18 -7 41 -23 51 -35 18 -20 18 -27 7 -123 -10 -84 -19
-119 -51 -185 -95 -202 -248 -274 -323 -154 -32 52 -31 198 1 292 34 101 99
182 164 208 35 14 114 13 151 -3z"/>
<path d="M2970 2488 c0 -13 -3 -40 -6 -60 l-7 -38 162 0 162 0 -6 -32 c-3 -18
-28 -222 -55 -453 -27 -231 -52 -435 -55 -452 l-6 -33 69 0 69 0 59 483 59
482 157 3 c177 3 160 -6 172 85 l5 37 -390 0 -389 0 0 -22z"/>
<path d="M4453 2185 c-171 -48 -303 -183 -357 -364 -21 -72 -21 -204 1 -270
36 -113 138 -165 246 -127 59 21 114 64 154 120 56 79 56 79 49 -15 -7 -99 -1
-109 60 -109 41 0 42 1 48 38 7 42 86 689 86 701 0 14 -83 33 -160 37 -47 3
-94 -1 -127 -11z m147 -118 c0 -80 -31 -256 -55 -316 -58 -143 -129 -219 -210
-229 -87 -9 -127 47 -127 177 0 177 98 334 239 386 21 7 64 14 96 14 l57 1 0
-33z"/>
<path d="M5153 2186 c-182 -59 -297 -239 -296 -461 0 -145 46 -235 147 -288
64 -33 193 -31 266 5 31 15 77 48 103 73 48 45 48 45 30 70 -23 32 -48 31 -87
-2 -111 -94 -256 -82 -308 26 -18 37 -23 63 -22 126 1 141 53 257 142 320 38
26 52 30 111 30 57 0 74 -4 109 -27 23 -16 44 -28 46 -28 10 0 56 55 56 67 0
14 -51 58 -92 79 -42 22 -154 27 -205 10z"/>
<path d="M6515 2187 c-72 -24 -120 -54 -167 -105 -139 -149 -178 -410 -82
-555 98 -148 326 -152 494 -7 44 38 45 39 30 67 -21 38 -46 40 -88 5 -69 -55
-101 -66 -184 -67 -90 0 -120 16 -155 85 -23 45 -33 150 -14 150 38 0 250 43
297 61 111 42 153 79 174 157 21 78 -16 154 -93 194 -52 26 -156 33 -212 15z
m148 -99 c32 -17 46 -39 47 -75 0 -68 -79 -118 -238 -149 -107 -20 -125 -19
-117 9 29 96 95 185 159 213 38 16 120 18 149 2z"/>
<path d="M3700 2186 c0 -1 -20 -171 -45 -377 -25 -206 -45 -377 -45 -381 0 -5
28 -8 63 -8 l63 0 19 163 c19 178 34 246 69 322 47 103 123 159 211 153 l39
-3 9 47 c13 66 6 78 -43 78 -75 0 -144 -51 -209 -155 l-31 -50 2 98 c3 110 0
117 -64 117 -21 0 -38 -2 -38 -4z"/>
</g>
</svg>
